# xmcd CD database file
#
# Track frame offsets:
#	150
#	23640
#	54230
#	73140
#	100330
#	114157
#	133715
#	153035
#	174780
#	198035
#	219177
#	247487
#
# Disc length: 3590 seconds
#
# Revision: 1
# Processed by: cddbd v1.5.2PL0 Copyright (c) Steve Scherf et al.
# Submitted via: CDex 1.70beta2
#
DISCID=960e040c
DTITLE=笠井紀美子 - Love Me
DYEAR=1984
DGENRE=Jazz
TTITLE0=Killing Me Softly With His Song
TTITLE1=We Can Fall In Love
TTITLE2=Love Talk
TTITLE3=This Masquerade
TTITLE4=Very Special Moment
TTITLE5=Vibration (Love Celebration)
TTITLE6=No Way,Not Me
TTITLE7=The Right Place
TTITLE8=Chain Reaction
TTITLE9=Steppin' Outside Tonight
TTITLE10=As
TTITLE11=Everything Must Change
EXTD=YEAR: 1984
EXTT0=
EXTT1=
EXTT2=
EXTT3=
EXTT4=
EXTT5=
EXTT6=
EXTT7=
EXTT8=
EXTT9=
EXTT10=
EXTT11=
PLAYORDER=
